<?xml version="1.0" encoding="UTF-8"?> <svg xmlns="http://www.w3.org/2000/svg" width="1720" height="1261" viewBox="0 0 1720 1261" fill="currentColor"><path d="M241.695 1133.31L76.4281 981.051V1251.05H127.421V1094.48L292.565 1251.05V981.051H241.695V1133.31Z" fill="currentColor"></path><path d="M1026 483.336V154.845H1139.29V606.106H1401.75L1717.05 439.955L846.73 0L552.199 152.878H688.098L1026 483.336Z" fill="currentColor"></path><path d="M50.993 979.207H0V1251.05H50.993V979.207Z" fill="currentColor"></path><path d="M455.865 976.872C377.348 976.872 313.822 1040.53 313.822 1118.94C313.822 1197.34 377.471 1261 455.865 1261C534.259 1261 597.908 1197.46 597.908 1118.94C597.908 1040.41 534.259 976.872 455.865 976.872ZM455.865 1207.66C406.838 1207.66 367.15 1167.97 367.15 1118.94C367.15 1069.9 406.838 1030.21 455.865 1030.21C504.892 1030.21 544.581 1069.9 544.581 1118.94C544.581 1167.97 504.892 1207.66 455.865 1207.66Z" fill="currentColor"></path><path d="M1661.51 982.894L1605.85 1132.09L1529.42 973.432L1454.84 1128.28L1401.02 979.085L1339.7 980.068L1444.39 1255.72L1529.42 1089.56L1615.31 1255.72L1720 982.894H1661.51Z" fill="currentColor"></path><path d="M1034.85 1135.04L869.584 982.894V1252.89H920.577V1096.2L1085.72 1252.89V982.894H1034.85V1135.04Z" fill="currentColor"></path><path d="M844.764 979.207H792.91L735.159 1069.16L684.289 981.051H621.992L707.021 1118.94L618.305 1251.05H687.115L735.282 1163.3L785.292 1252.03H847.59L764.526 1120.78L844.764 979.207Z" fill="currentColor"></path><path d="M1193.11 1142.04H1295.1V1093.37H1193.11V1031.56H1318.2V979.699H1193.11V979.207H1141.26V979.699H1139.29V1031.56H1141.26V1093.37H1103.66V1142.04H1141.26V1201.03H1140.65V1252.89H1319.55V1201.03H1193.11V1142.04Z" fill="currentColor"></path><path d="M1092.48 685.494L797.58 419.186V721.256H691.907V309.689L661.68 279.458H318.123L4.79211 445.608L861.843 895.026L1255.32 685.986L1092.48 685.617V685.494ZM646.567 713.637H537.085V290.764H646.567V713.637Z" fill="currentColor"></path></svg> 