<?xml version="1.0" encoding="UTF-8"?>
<!DOCTYPE svg PUBLIC "-//W3C//DTD SVG 1.1//EN" "http://www.w3.org/Graphics/SVG/1.1/DTD/svg11.dtd">
<!-- Creator: CorelDRAW -->
<svg xmlns="http://www.w3.org/2000/svg" xml:space="preserve" width="297mm" height="210mm" version="1.1" style="shape-rendering:geometricPrecision; text-rendering:geometricPrecision; image-rendering:optimizeQuality; fill-rule:evenodd; clip-rule:evenodd"
viewBox="0 0 29700 21000"
 xmlns:xlink="http://www.w3.org/1999/xlink"
 xmlns:xodm="http://www.corel.com/coreldraw/odm/2003">
 <defs>
  <style type="text/css">
   <![CDATA[
    .fil1 {fill:currentColor}
    .fil0 {fill:currentColor}
   ]]>
  </style>
 </defs>
 <g id="Camada_x0020_1">
  <metadata id="CorelCorpID_0Corel-Layer"/>
  <g id="_1680022045296">
   <polygon fill="currentColor" points="19000.58,12247.18 19557.41,12223.34 20078.42,13645.18 20769.39,12187.57 21516.93,13674.99 22018.24,12271.03 22575.07,12259.11 21589.34,14820.33 20766.96,13252.09 19962.46,14826.29 "/>
   <polygon fill="currentColor" points="18790.28,14808.65 17108.83,14808.65 17108.83,13765.82 16760.04,13753.23 16760.04,13290.62 17108.83,13303.21 17108.83,12248.97 18790.28,12248.97 18790.28,12698.99 17605.65,12698.99 17605.65,13303.21 18558.97,13316.05 18558.97,13758.87 17605.65,13765.82 17605.65,14358.64 18790.28,14358.64 "/>
   <polygon fill="currentColor" points="15023.18,14797.49 14557.62,14803.01 14557.62,12243.64 16096.6,13685.35 16091.08,12243.64 16580.64,12243.64 16580.64,14803.01 15023.18,13356.26 "/>
   <polygon fill="currentColor" points="13295.4,13973.33 12788.39,14815.82 12147.26,14801.63 12993.26,13555.61 12205.34,12250.81 12803.27,12265 13281.21,13111 13819.24,12222.43 14296.55,12243.72 13550.38,13583.99 14312.06,14787.44 13756.7,14794.53 "/>
   <path fill="currentColor" d="M9285.71 13541.06c0,-142.03 19.03,-276.17 57.7,-402.41 38.06,-126.25 95.15,-244.61 170.66,-354.46 129.53,-186.34 292.21,-330.19 487.43,-431.55 195.22,-101.36 408.85,-151.74 640.29,-151.74 173.73,0 341.32,33.39 502.78,99.54 161.45,66.16 305.71,162.06 432.79,286.49 130.76,128.67 230.21,274.34 298.35,435.18 68.14,161.45 102.52,330.79 102.52,508.63 0,184.51 -31.92,358.1 -96.38,520.76 -63.85,162.06 -158.39,305.91 -283.01,431.55 -125.84,131.71 -272.56,233.07 -440.15,303.47 -166.98,70.41 -341.94,105.61 -524.27,105.61 -195.21,0 -375.08,-34.59 -539.61,-103.18 -163.91,-68.58 -309.4,-170.55 -437.09,-305.9 -122.16,-127.46 -214.86,-271.31 -277.48,-430.94 -63.23,-159.02 -94.53,-329.58 -94.53,-511.05zm537.76 -17.61c0,111.08 18.42,214.87 55.87,310.76 36.83,96.51 92.08,183.91 165.13,263.42 80.42,86.19 171.89,152.95 273.8,199.69 101.91,46.74 207.49,70.41 316.77,70.41 228.98,0 421.13,-80.73 576.44,-241.57 155.31,-161.45 232.66,-362.35 232.66,-602.71 0,-220.32 -77.96,-408.47 -234.5,-564.46 -156.54,-155.99 -344.39,-233.68 -564.17,-233.68 -228.98,0 -422.97,77.69 -582.58,233.07 -159.61,154.77 -239.42,343.54 -239.42,565.07z"/>
   <polygon fill="currentColor" points="7522.18,14787.52 7046.93,14787.52 7052.18,12246.62 8616.72,13683.94 8616.72,12241.71 9098.11,12251.54 9093.2,14792.35 7537.25,13339.19 "/>
   <path fill="currentColor" d="M19056.74 15881.84c0,3.08 0.19,7.71 0.58,13.88 0.38,6.16 0.58,10.79 0.58,13.87 0,35.27 -3.28,68.03 -9.64,98.48 -6.36,30.26 -16.19,58.78 -29.29,85.37 -38.74,77.28 -91.54,136.83 -158.42,178.65 -66.87,42.01 -142.41,63.02 -226.63,63.02 -62.25,0 -119.68,-11.95 -172.29,-35.65 -52.8,-23.71 -100.21,-58.78 -142.23,-105.42 -35.07,-39.12 -61.86,-83.64 -80.17,-133.16 -18.5,-49.73 -27.75,-102.34 -27.75,-158.03 0,-57.24 11.18,-111.59 33.34,-162.85 22.17,-51.45 54.73,-98.09 97.71,-140.3 40.47,-40.28 85.76,-70.15 135.67,-89.8 49.92,-19.47 105.03,-29.3 165.74,-29.3 88.46,0 164.77,21.59 229.14,64.95 64.37,43.17 113.9,106.38 148.97,189.44l-195.41 0c-23.71,-29.68 -51.65,-52.03 -83.84,-66.87 -32.18,-14.84 -68.02,-22.17 -107.92,-22.17 -70.34,0 -130.08,25.44 -178.84,76.13 -48.95,50.87 -73.42,112.54 -73.42,185.2 0,73.81 24.66,135.87 74.19,186.55 49.34,50.68 110.24,75.93 182.51,75.93 49.91,0 95.39,-13.49 136.05,-40.66 40.86,-27.18 71.12,-63.79 90.58,-109.66l-279.98 0 0 -137.6 470.77 0zm307.12 15.03l35.66 0c65.14,0 114.66,-11.75 148.39,-35.27 33.72,-23.51 50.68,-57.81 50.68,-103.1 0,-43.55 -14.07,-75.74 -42.4,-96.55 -28.32,-20.62 -72.46,-31.03 -132.39,-31.03l-59.94 0 0 265.95zm0 422.05l-160.72 0 0 -822.13 195.22 0c62.05,0 108.31,2.12 138.56,6.55 30.45,4.24 56.28,11.37 77.86,21.2 46.64,21.78 82.29,52.23 106.77,91.35 24.47,39.12 36.61,84.99 36.61,137.79 0,63.6 -17.53,117.56 -52.61,161.69 -34.88,44.33 -82.48,72.27 -142.8,84.41l205.63 319.14 -191.95 0 -212.57 -381.58 0 381.58zm675.6 -418.39c0,35.27 5.78,68.23 17.54,98.68 11.56,30.64 28.91,58.39 51.84,83.63 25.25,27.37 53.96,48.57 85.95,63.41 31.99,14.84 65.14,22.35 99.44,22.35 71.89,0 132.21,-25.63 180.96,-76.7 48.76,-51.26 73.04,-115.05 73.04,-191.37 0,-69.95 -24.47,-129.69 -73.61,-179.22 -49.15,-49.53 -108.12,-74.2 -177.11,-74.2 -71.88,0 -132.78,24.67 -182.89,74 -50.1,49.15 -75.16,109.08 -75.16,179.42zm-168.82 5.59c0,-45.09 5.98,-87.68 18.12,-127.77 11.94,-40.08 29.87,-77.66 53.57,-112.55 40.67,-59.16 91.74,-104.83 153.02,-137.02 61.28,-32.18 128.35,-48.18 201,-48.18 54.54,0 107.15,10.6 157.84,31.61 50.68,21 95.97,51.45 135.86,90.96 41.05,40.86 72.27,87.11 93.67,138.18 21.39,51.26 32.18,105.03 32.18,161.5 0,58.58 -10.02,113.7 -30.26,165.35 -20.04,51.45 -49.72,97.13 -88.84,137.02 -39.51,41.82 -85.57,74 -138.18,96.36 -52.42,22.35 -107.34,33.53 -164.58,33.53 -61.28,0 -117.75,-10.98 -169.4,-32.76 -51.45,-21.78 -97.13,-54.15 -137.21,-97.13 -38.35,-40.47 -67.45,-86.14 -87.11,-136.83 -19.85,-50.49 -29.68,-104.64 -29.68,-162.27zm991.66 -409.33l160.72 0 0 474.28c0,74 7.9,125.46 23.51,154.37 15.61,28.71 42.4,43.16 80.56,43.16 38.16,0 64.95,-14.45 80.56,-43.16 15.61,-28.91 23.51,-80.37 23.51,-154.37l0 -474.28 160.72 0 0 521.69c0,57.81 -3.27,101.37 -9.63,130.27 -6.36,29.1 -17.16,54.54 -32.19,76.32 -25.63,37.58 -56.46,65.33 -92.5,83.25 -36.23,17.93 -79.59,26.79 -130.47,26.79 -50.88,0 -94.24,-8.86 -130.47,-26.79 -36.04,-17.92 -66.87,-45.67 -92.5,-83.25 -15.04,-21.78 -25.83,-46.25 -32.19,-73.43 -6.36,-27.17 -9.63,-71.49 -9.63,-133.16l0 -521.69zm872.55 367.71l42.4 0c44.9,0 79.21,-9.64 103.3,-29.1 23.89,-19.47 35.84,-47.22 35.84,-83.26 0,-37.39 -11.56,-65.14 -34.69,-83.44 -23.32,-18.31 -58.39,-27.37 -105.61,-27.37l-41.24 0 0 223.17zm0 454.42l-160.73 0 0 -822.13 204.28 0c52.04,0 92.89,2.89 122.96,8.48 29.87,5.59 53.96,14.65 72.46,27.17 33.92,22.94 60.51,53.19 79.98,90.77 19.46,37.78 29.1,78.05 29.1,120.84 0,78.63 -26.02,141.64 -78.05,188.67 -51.84,47.02 -121.99,70.53 -210.06,70.53l-59.94 0 0 315.67z"/>
   <rect fill="currentColor" x="6320.6" y="12225.77" width="486.57" height="2575.4"/>
   <polygon fill="currentColor" points="12821.71,4422.1 11735.16,4422.1 14554.31,2997.84 22571.27,7167.83 20530.33,8195.65 17138.53,8180.97 17109.17,4436.78 15993.25,4407.41 15993.25,7417.45 "/>
   <path fill="currentColor" d="M6390.51 7123.79l3039.4 -1527.05 3435.84 -14.68 -14.68 3729.5 1119.54 11.07 11.06 -2330.99 2642.96 2334.61 1571.09 0 -3714.83 1952.85 -8090.38 -4155.31zm5006.94 -1321.48l1071.86 0 0 3523.94 -1071.86 0 0 -3523.94z"/>
  </g>
 </g>
</svg>
